<?xml version="1.0" encoding="utf-8" standalone="no"?>
<!DOCTYPE svg PUBLIC "-//W3C//DTD SVG 1.1//EN"
  "http://www.w3.org/Graphics/SVG/1.1/DTD/svg11.dtd">
<svg xmlns:xlink="http://www.w3.org/1999/xlink" width="460.8pt" height="345.6pt" viewBox="0 0 460.8 345.6" xmlns="http://www.w3.org/2000/svg" version="1.1">
 <metadata>
  <rdf:RDF xmlns:dc="http://purl.org/dc/elements/1.1/" xmlns:cc="http://creativecommons.org/ns#" xmlns:rdf="http://www.w3.org/1999/02/22-rdf-syntax-ns#">
   <cc:Work>
    <dc:type rdf:resource="http://purl.org/dc/dcmitype/StillImage"/>
    <dc:date>1980-01-01T00:00:00+00:00</dc:date>
    <dc:format>image/svg+xml</dc:format>
    <dc:creator>
     <cc:Agent>
      <dc:title>Matplotlib v3.10.3, https://matplotlib.org/</dc:title>
     </cc:Agent>
    </dc:creator>
   </cc:Work>
  </rdf:RDF>
 </metadata>
 <defs>
  <style type="text/css">*{stroke-linejoin: round; stroke-linecap: butt}</style>
 </defs>
 <g id="figure_1">
  <g id="patch_1">
   <path d="M 0 345.6 
L 460.8 345.6 
L 460.8 0 
L 0 0 
z
" style="fill: #ffffff"/>
  </g>
  <g id="axes_1">
   <g id="patch_2">
    <path d="M 57.6 307.584 
L 414.72 307.584 
L 414.72 41.472 
L 57.6 41.472 
z
" style="fill: #ffffff"/>
   </g>
   <g id="patch_3">
    <path d="M 58.716 307.584 
L 60.948 307.584 
L 60.948 251.570087 
L 58.716 251.570087 
z
" clip-path="url(#pe4af7b34d5)" style="fill: #1f77b4"/>
   </g>
   <g id="patch_4">
    <path d="M 63.18 307.584 
L 65.412 307.584 
L 65.412 306.665739 
L 63.18 306.665739 
z
" clip-path="url(#pe4af7b34d5)" style="fill: #1f77b4"/>
   </g>
   <g id="patch_5">
    <path d="M 67.644 307.584 
L 69.876 307.584 
L 69.876 307.584 
L 67.644 307.584 
z
" clip-path="url(#pe4af7b34d5)" style="fill: #1f77b4"/>
   </g>
   <g id="patch_6">
    <path d="M 72.108 307.584 
L 74.34 307.584 
L 74.34 307.584 
L 72.108 307.584 
z
" clip-path="url(#pe4af7b34d5)" style="fill: #1f77b4"/>
   </g>
   <g id="patch_7">
    <path d="M 76.572 307.584 
L 78.804 307.584 
L 78.804 307.584 
L 76.572 307.584 
z
" clip-path="url(#pe4af7b34d5)" style="fill: #1f77b4"/>
   </g>
   <g id="patch_8">
    <path d="M 81.036 307.584 
L 83.268 307.584 
L 83.268 307.584 
L 81.036 307.584 
z
" clip-path="url(#pe4af7b34d5)" style="fill: #1f77b4"/>
   </g>
   <g id="patch_9">
    <path d="M 85.5 307.584 
L 87.732 307.584 
L 87.732 307.584 
L 85.5 307.584 
z
" clip-path="url(#pe4af7b34d5)" style="fill: #1f77b4"/>
   </g>
   <g id="patch_10">
    <path d="M 89.964 307.584 
L 92.196 307.584 
L 92.196 307.584 
L 89.964 307.584 
z
" clip-path="url(#pe4af7b34d5)" style="fill: #1f77b4"/>
   </g>
   <g id="patch_11">
    <path d="M 94.428 307.584 
L 96.66 307.584 
L 96.66 307.584 
L 94.428 307.584 
z
" clip-path="url(#pe4af7b34d5)" style="fill: #1f77b4"/>
   </g>
   <g id="patch_12">
    <path d="M 98.892 307.584 
L 101.124 307.584 
L 101.124 307.584 
L 98.892 307.584 
z
" clip-path="url(#pe4af7b34d5)" style="fill: #1f77b4"/>
   </g>
   <g id="patch_13">
    <path d="M 103.356 307.584 
L 105.588 307.584 
L 105.588 307.584 
L 103.356 307.584 
z
" clip-path="url(#pe4af7b34d5)" style="fill: #1f77b4"/>
   </g>
   <g id="patch_14">
    <path d="M 107.82 307.584 
L 110.052 307.584 
L 110.052 307.584 
L 107.82 307.584 
z
" clip-path="url(#pe4af7b34d5)" style="fill: #1f77b4"/>
   </g>
   <g id="patch_15">
    <path d="M 112.284 307.584 
L 114.516 307.584 
L 114.516 307.584 
L 112.284 307.584 
z
" clip-path="url(#pe4af7b34d5)" style="fill: #1f77b4"/>
   </g>
   <g id="patch_16">
    <path d="M 116.748 307.584 
L 118.98 307.584 
L 118.98 307.584 
L 116.748 307.584 
z
" clip-path="url(#pe4af7b34d5)" style="fill: #1f77b4"/>
   </g>
   <g id="patch_17">
    <path d="M 121.212 307.584 
L 123.444 307.584 
L 123.444 307.584 
L 121.212 307.584 
z
" clip-path="url(#pe4af7b34d5)" style="fill: #1f77b4"/>
   </g>
   <g id="patch_18">
    <path d="M 125.676 307.584 
L 127.908 307.584 
L 127.908 307.584 
L 125.676 307.584 
z
" clip-path="url(#pe4af7b34d5)" style="fill: #1f77b4"/>
   </g>
   <g id="patch_19">
    <path d="M 130.14 307.584 
L 132.372 307.584 
L 132.372 307.584 
L 130.14 307.584 
z
" clip-path="url(#pe4af7b34d5)" style="fill: #1f77b4"/>
   </g>
   <g id="patch_20">
    <path d="M 134.604 307.584 
L 136.836 307.584 
L 136.836 307.584 
L 134.604 307.584 
z
" clip-path="url(#pe4af7b34d5)" style="fill: #1f77b4"/>
   </g>
   <g id="patch_21">
    <path d="M 139.068 307.584 
L 141.3 307.584 
L 141.3 307.584 
L 139.068 307.584 
z
" clip-path="url(#pe4af7b34d5)" style="fill: #1f77b4"/>
   </g>
   <g id="patch_22">
    <path d="M 143.532 307.584 
L 145.764 307.584 
L 145.764 307.584 
L 143.532 307.584 
z
" clip-path="url(#pe4af7b34d5)" style="fill: #1f77b4"/>
   </g>
   <g id="patch_23">
    <path d="M 147.996 307.584 
L 150.228 307.584 
L 150.228 307.584 
L 147.996 307.584 
z
" clip-path="url(#pe4af7b34d5)" style="fill: #1f77b4"/>
   </g>
   <g id="patch_24">
    <path d="M 152.46 307.584 
L 154.692 307.584 
L 154.692 307.584 
L 152.46 307.584 
z
" clip-path="url(#pe4af7b34d5)" style="fill: #1f77b4"/>
   </g>
   <g id="patch_25">
    <path d="M 156.924 307.584 
L 159.156 307.584 
L 159.156 307.584 
L 156.924 307.584 
z
" clip-path="url(#pe4af7b34d5)" style="fill: #1f77b4"/>
   </g>
   <g id="patch_26">
    <path d="M 161.388 307.584 
L 163.62 307.584 
L 163.62 307.584 
L 161.388 307.584 
z
" clip-path="url(#pe4af7b34d5)" style="fill: #1f77b4"/>
   </g>
   <g id="patch_27">
    <path d="M 165.852 307.584 
L 168.084 307.584 
L 168.084 307.584 
L 165.852 307.584 
z
" clip-path="url(#pe4af7b34d5)" style="fill: #1f77b4"/>
   </g>
   <g id="patch_28">
    <path d="M 170.316 307.584 
L 172.548 307.584 
L 172.548 307.584 
L 170.316 307.584 
z
" clip-path="url(#pe4af7b34d5)" style="fill: #1f77b4"/>
   </g>
   <g id="patch_29">
    <path d="M 174.78 307.584 
L 177.012 307.584 
L 177.012 307.584 
L 174.78 307.584 
z
" clip-path="url(#pe4af7b34d5)" style="fill: #1f77b4"/>
   </g>
   <g id="patch_30">
    <path d="M 179.244 307.584 
L 181.476 307.584 
L 181.476 307.584 
L 179.244 307.584 
z
" clip-path="url(#pe4af7b34d5)" style="fill: #1f77b4"/>
   </g>
   <g id="patch_31">
    <path d="M 183.708 307.584 
L 185.94 307.584 
L 185.94 307.584 
L 183.708 307.584 
z
" clip-path="url(#pe4af7b34d5)" style="fill: #1f77b4"/>
   </g>
   <g id="patch_32">
    <path d="M 188.172 307.584 
L 190.404 307.584 
L 190.404 307.584 
L 188.172 307.584 
z
" clip-path="url(#pe4af7b34d5)" style="fill: #1f77b4"/>
   </g>
   <g id="patch_33">
    <path d="M 192.636 307.584 
L 194.868 307.584 
L 194.868 307.584 
L 192.636 307.584 
z
" clip-path="url(#pe4af7b34d5)" style="fill: #1f77b4"/>
   </g>
   <g id="patch_34">
    <path d="M 197.1 307.584 
L 199.332 307.584 
L 199.332 307.584 
L 197.1 307.584 
z
" clip-path="url(#pe4af7b34d5)" style="fill: #1f77b4"/>
   </g>
   <g id="patch_35">
    <path d="M 201.564 307.584 
L 203.796 307.584 
L 203.796 306.665739 
L 201.564 306.665739 
z
" clip-path="url(#pe4af7b34d5)" style="fill: #1f77b4"/>
   </g>
   <g id="patch_36">
    <path d="M 206.028 307.584 
L 208.26 307.584 
L 208.26 303.910957 
L 206.028 303.910957 
z
" clip-path="url(#pe4af7b34d5)" style="fill: #1f77b4"/>
   </g>
   <g id="patch_37">
    <path d="M 210.492 307.584 
L 212.724 307.584 
L 212.724 300.237913 
L 210.492 300.237913 
z
" clip-path="url(#pe4af7b34d5)" style="fill: #1f77b4"/>
   </g>
   <g id="patch_38">
    <path d="M 214.956 307.584 
L 217.188 307.584 
L 217.188 294.728348 
L 214.956 294.728348 
z
" clip-path="url(#pe4af7b34d5)" style="fill: #1f77b4"/>
   </g>
   <g id="patch_39">
    <path d="M 219.42 307.584 
L 221.652 307.584 
L 221.652 291.514435 
L 219.42 291.514435 
z
" clip-path="url(#pe4af7b34d5)" style="fill: #1f77b4"/>
   </g>
   <g id="patch_40">
    <path d="M 223.884 307.584 
L 226.116 307.584 
L 226.116 288.759652 
L 223.884 288.759652 
z
" clip-path="url(#pe4af7b34d5)" style="fill: #1f77b4"/>
   </g>
   <g id="patch_41">
    <path d="M 228.348 307.584 
L 230.58 307.584 
L 230.58 282.331826 
L 228.348 282.331826 
z
" clip-path="url(#pe4af7b34d5)" style="fill: #1f77b4"/>
   </g>
   <g id="patch_42">
    <path d="M 232.812 307.584 
L 235.044 307.584 
L 235.044 271.312696 
L 232.812 271.312696 
z
" clip-path="url(#pe4af7b34d5)" style="fill: #1f77b4"/>
   </g>
   <g id="patch_43">
    <path d="M 237.276 307.584 
L 239.508 307.584 
L 239.508 260.752696 
L 237.276 260.752696 
z
" clip-path="url(#pe4af7b34d5)" style="fill: #1f77b4"/>
   </g>
   <g id="patch_44">
    <path d="M 241.74 307.584 
L 243.972 307.584 
L 243.972 253.406609 
L 241.74 253.406609 
z
" clip-path="url(#pe4af7b34d5)" style="fill: #1f77b4"/>
   </g>
   <g id="patch_45">
    <path d="M 246.204 307.584 
L 248.436 307.584 
L 248.436 246.519652 
L 246.204 246.519652 
z
" clip-path="url(#pe4af7b34d5)" style="fill: #1f77b4"/>
   </g>
   <g id="patch_46">
    <path d="M 250.668 307.584 
L 252.9 307.584 
L 252.9 238.714435 
L 250.668 238.714435 
z
" clip-path="url(#pe4af7b34d5)" style="fill: #1f77b4"/>
   </g>
   <g id="patch_47">
    <path d="M 255.132 307.584 
L 257.364 307.584 
L 257.364 229.072696 
L 255.132 229.072696 
z
" clip-path="url(#pe4af7b34d5)" style="fill: #1f77b4"/>
   </g>
   <g id="patch_48">
    <path d="M 259.596 307.584 
L 261.828 307.584 
L 261.828 218.053565 
L 259.596 218.053565 
z
" clip-path="url(#pe4af7b34d5)" style="fill: #1f77b4"/>
   </g>
   <g id="patch_49">
    <path d="M 264.06 307.584 
L 266.292 307.584 
L 266.292 207.952696 
L 264.06 207.952696 
z
" clip-path="url(#pe4af7b34d5)" style="fill: #1f77b4"/>
   </g>
   <g id="patch_50">
    <path d="M 268.524 307.584 
L 270.756 307.584 
L 270.756 196.933565 
L 268.524 196.933565 
z
" clip-path="url(#pe4af7b34d5)" style="fill: #1f77b4"/>
   </g>
   <g id="patch_51">
    <path d="M 272.988 307.584 
L 275.22 307.584 
L 275.22 188.210087 
L 272.988 188.210087 
z
" clip-path="url(#pe4af7b34d5)" style="fill: #1f77b4"/>
   </g>
   <g id="patch_52">
    <path d="M 277.452 307.584 
L 279.684 307.584 
L 279.684 178.109217 
L 277.452 178.109217 
z
" clip-path="url(#pe4af7b34d5)" style="fill: #1f77b4"/>
   </g>
   <g id="patch_53">
    <path d="M 281.916 307.584 
L 284.148 307.584 
L 284.148 54.144 
L 281.916 54.144 
z
" clip-path="url(#pe4af7b34d5)" style="fill: #1f77b4"/>
   </g>
   <g id="patch_54">
    <path d="M 286.38 307.584 
L 288.612 307.584 
L 288.612 54.144 
L 286.38 54.144 
z
" clip-path="url(#pe4af7b34d5)" style="fill: #1f77b4"/>
   </g>
   <g id="patch_55">
    <path d="M 290.844 307.584 
L 293.076 307.584 
L 293.076 54.144 
L 290.844 54.144 
z
" clip-path="url(#pe4af7b34d5)" style="fill: #1f77b4"/>
   </g>
   <g id="patch_56">
    <path d="M 295.308 307.584 
L 297.54 307.584 
L 297.54 54.144 
L 295.308 54.144 
z
" clip-path="url(#pe4af7b34d5)" style="fill: #1f77b4"/>
   </g>
   <g id="patch_57">
    <path d="M 299.772 307.584 
L 302.004 307.584 
L 302.004 54.144 
L 299.772 54.144 
z
" clip-path="url(#pe4af7b34d5)" style="fill: #1f77b4"/>
   </g>
   <g id="patch_58">
    <path d="M 304.236 307.584 
L 306.468 307.584 
L 306.468 54.144 
L 304.236 54.144 
z
" clip-path="url(#pe4af7b34d5)" style="fill: #1f77b4"/>
   </g>
   <g id="patch_59">
    <path d="M 308.7 307.584 
L 310.932 307.584 
L 310.932 54.144 
L 308.7 54.144 
z
" clip-path="url(#pe4af7b34d5)" style="fill: #1f77b4"/>
   </g>
   <g id="patch_60">
    <path d="M 313.164 307.584 
L 315.396 307.584 
L 315.396 54.144 
L 313.164 54.144 
z
" clip-path="url(#pe4af7b34d5)" style="fill: #1f77b4"/>
   </g>
   <g id="patch_61">
    <path d="M 317.628 307.584 
L 319.86 307.584 
L 319.86 54.144 
L 317.628 54.144 
z
" clip-path="url(#pe4af7b34d5)" style="fill: #1f77b4"/>
   </g>
   <g id="patch_62">
    <path d="M 322.092 307.584 
L 324.324 307.584 
L 324.324 54.144 
L 322.092 54.144 
z
" clip-path="url(#pe4af7b34d5)" style="fill: #1f77b4"/>
   </g>
   <g id="patch_63">
    <path d="M 326.556 307.584 
L 328.788 307.584 
L 328.788 54.144 
L 326.556 54.144 
z
" clip-path="url(#pe4af7b34d5)" style="fill: #1f77b4"/>
   </g>
   <g id="patch_64">
    <path d="M 331.02 307.584 
L 333.252 307.584 
L 333.252 54.144 
L 331.02 54.144 
z
" clip-path="url(#pe4af7b34d5)" style="fill: #1f77b4"/>
   </g>
   <g id="patch_65">
    <path d="M 335.484 307.584 
L 337.716 307.584 
L 337.716 54.144 
L 335.484 54.144 
z
" clip-path="url(#pe4af7b34d5)" style="fill: #1f77b4"/>
   </g>
   <g id="patch_66">
    <path d="M 339.948 307.584 
L 342.18 307.584 
L 342.18 54.144 
L 339.948 54.144 
z
" clip-path="url(#pe4af7b34d5)" style="fill: #1f77b4"/>
   </g>
   <g id="patch_67">
    <path d="M 344.412 307.584 
L 346.644 307.584 
L 346.644 54.144 
L 344.412 54.144 
z
" clip-path="url(#pe4af7b34d5)" style="fill: #1f77b4"/>
   </g>
   <g id="patch_68">
    <path d="M 348.876 307.584 
L 351.108 307.584 
L 351.108 54.144 
L 348.876 54.144 
z
" clip-path="url(#pe4af7b34d5)" style="fill: #1f77b4"/>
   </g>
   <g id="patch_69">
    <path d="M 353.34 307.584 
L 355.572 307.584 
L 355.572 54.144 
L 353.34 54.144 
z
" clip-path="url(#pe4af7b34d5)" style="fill: #1f77b4"/>
   </g>
   <g id="patch_70">
    <path d="M 357.804 307.584 
L 360.036 307.584 
L 360.036 54.144 
L 357.804 54.144 
z
" clip-path="url(#pe4af7b34d5)" style="fill: #1f77b4"/>
   </g>
   <g id="patch_71">
    <path d="M 362.268 307.584 
L 364.5 307.584 
L 364.5 54.144 
L 362.268 54.144 
z
" clip-path="url(#pe4af7b34d5)" style="fill: #1f77b4"/>
   </g>
   <g id="patch_72">
    <path d="M 366.732 307.584 
L 368.964 307.584 
L 368.964 54.144 
L 366.732 54.144 
z
" clip-path="url(#pe4af7b34d5)" style="fill: #1f77b4"/>
   </g>
   <g id="patch_73">
    <path d="M 371.196 307.584 
L 373.428 307.584 
L 373.428 54.144 
L 371.196 54.144 
z
" clip-path="url(#pe4af7b34d5)" style="fill: #1f77b4"/>
   </g>
   <g id="patch_74">
    <path d="M 375.66 307.584 
L 377.892 307.584 
L 377.892 54.144 
L 375.66 54.144 
z
" clip-path="url(#pe4af7b34d5)" style="fill: #1f77b4"/>
   </g>
   <g id="patch_75">
    <path d="M 380.124 307.584 
L 382.356 307.584 
L 382.356 54.144 
L 380.124 54.144 
z
" clip-path="url(#pe4af7b34d5)" style="fill: #1f77b4"/>
   </g>
   <g id="patch_76">
    <path d="M 384.588 307.584 
L 386.82 307.584 
L 386.82 54.144 
L 384.588 54.144 
z
" clip-path="url(#pe4af7b34d5)" style="fill: #1f77b4"/>
   </g>
   <g id="patch_77">
    <path d="M 389.052 307.584 
L 391.284 307.584 
L 391.284 54.144 
L 389.052 54.144 
z
" clip-path="url(#pe4af7b34d5)" style="fill: #1f77b4"/>
   </g>
   <g id="patch_78">
    <path d="M 393.516 307.584 
L 395.748 307.584 
L 395.748 54.144 
L 393.516 54.144 
z
" clip-path="url(#pe4af7b34d5)" style="fill: #1f77b4"/>
   </g>
   <g id="patch_79">
    <path d="M 397.98 307.584 
L 400.212 307.584 
L 400.212 54.144 
L 397.98 54.144 
z
" clip-path="url(#pe4af7b34d5)" style="fill: #1f77b4"/>
   </g>
   <g id="patch_80">
    <path d="M 402.444 307.584 
L 404.676 307.584 
L 404.676 54.144 
L 402.444 54.144 
z
" clip-path="url(#pe4af7b34d5)" style="fill: #1f77b4"/>
   </g>
   <g id="patch_81">
    <path d="M 406.908 307.584 
L 409.14 307.584 
L 409.14 54.144 
L 406.908 54.144 
z
" clip-path="url(#pe4af7b34d5)" style="fill: #1f77b4"/>
   </g>
   <g id="patch_82">
    <path d="M 411.372 307.584 
L 413.604 307.584 
L 413.604 54.144 
L 411.372 54.144 
z
" clip-path="url(#pe4af7b34d5)" style="fill: #1f77b4"/>
   </g>
   <g id="matplotlib.axis_1">
    <g id="xtick_1">
     <g id="line2d_1">
      <defs>
       <path id="m4ab9728622" d="M 0 0 
L 0 3.5 
" style="stroke: #000000; stroke-width: 0.8"/>
      </defs>
      <g>
       <use xlink:href="#m4ab9728622" x="59.832" y="307.584" style="stroke: #000000; stroke-width: 0.8"/>
      </g>
     </g>
     <g id="text_1">
      <!-- 0.5 -->
      <g transform="translate(62.591375 330.487125) rotate(-90) scale(0.1 -0.1)">
       <defs>
        <path id="DejaVuSans-30" d="M 2034 4250 
Q 1547 4250 1301 3770 
Q 1056 3291 1056 2328 
Q 1056 1369 1301 889 
Q 1547 409 2034 409 
Q 2525 409 2770 889 
Q 3016 1369 3016 2328 
Q 3016 3291 2770 3770 
Q 2525 4250 2034 4250 
z
M 2034 4750 
Q 2819 4750 3233 4129 
Q 3647 3509 3647 2328 
Q 3647 1150 3233 529 
Q 2819 -91 2034 -91 
Q 1250 -91 836 529 
Q 422 1150 422 2328 
Q 422 3509 836 4129 
Q 1250 4750 2034 4750 
z
" transform="scale(0.015625)"/>
        <path id="DejaVuSans-2e" d="M 684 794 
L 1344 794 
L 1344 0 
L 684 0 
L 684 794 
z
" transform="scale(0.015625)"/>
        <path id="DejaVuSans-35" d="M 691 4666 
L 3169 4666 
L 3169 4134 
L 1269 4134 
L 1269 2991 
Q 1406 3038 1543 3061 
Q 1681 3084 1819 3084 
Q 2600 3084 3056 2656 
Q 3513 2228 3513 1497 
Q 3513 744 3044 326 
Q 2575 -91 1722 -91 
Q 1428 -91 1123 -41 
Q 819 9 494 109 
L 494 744 
Q 775 591 1075 516 
Q 1375 441 1709 441 
Q 2250 441 2565 725 
Q 2881 1009 2881 1497 
Q 2881 1984 2565 2268 
Q 2250 2553 1709 2553 
Q 1456 2553 1204 2497 
Q 953 2441 691 2322 
L 691 4666 
z
" transform="scale(0.015625)"/>
       </defs>
       <use xlink:href="#DejaVuSans-30"/>
       <use xlink:href="#DejaVuSans-2e" transform="translate(63.623047 0)"/>
       <use xlink:href="#DejaVuSans-35" transform="translate(95.410156 0)"/>
      </g>
     </g>
    </g>
    <g id="xtick_2">
     <g id="line2d_2">
      <g>
       <use xlink:href="#m4ab9728622" x="82.152" y="307.584" style="stroke: #000000; stroke-width: 0.8"/>
      </g>
     </g>
     <g id="text_2">
      <!-- 3 -->
      <g transform="translate(84.911375 320.9465) rotate(-90) scale(0.1 -0.1)">
       <defs>
        <path id="DejaVuSans-33" d="M 2597 2516 
Q 3050 2419 3304 2112 
Q 3559 1806 3559 1356 
Q 3559 666 3084 287 
Q 2609 -91 1734 -91 
Q 1441 -91 1130 -33 
Q 819 25 488 141 
L 488 750 
Q 750 597 1062 519 
Q 1375 441 1716 441 
Q 2309 441 2620 675 
Q 2931 909 2931 1356 
Q 2931 1769 2642 2001 
Q 2353 2234 1838 2234 
L 1294 2234 
L 1294 2753 
L 1863 2753 
Q 2328 2753 2575 2939 
Q 2822 3125 2822 3475 
Q 2822 3834 2567 4026 
Q 2313 4219 1838 4219 
Q 1578 4219 1281 4162 
Q 984 4106 628 3988 
L 628 4550 
Q 988 4650 1302 4700 
Q 1616 4750 1894 4750 
Q 2613 4750 3031 4423 
Q 3450 4097 3450 3541 
Q 3450 3153 3228 2886 
Q 3006 2619 2597 2516 
z
" transform="scale(0.015625)"/>
       </defs>
       <use xlink:href="#DejaVuSans-33"/>
      </g>
     </g>
    </g>
    <g id="xtick_3">
     <g id="line2d_3">
      <g>
       <use xlink:href="#m4ab9728622" x="104.472" y="307.584" style="stroke: #000000; stroke-width: 0.8"/>
      </g>
     </g>
     <g id="text_3">
      <!-- 5.5 -->
      <g transform="translate(107.231375 330.487125) rotate(-90) scale(0.1 -0.1)">
       <use xlink:href="#DejaVuSans-35"/>
       <use xlink:href="#DejaVuSans-2e" transform="translate(63.623047 0)"/>
       <use xlink:href="#DejaVuSans-35" transform="translate(95.410156 0)"/>
      </g>
     </g>
    </g>
    <g id="xtick_4">
     <g id="line2d_4">
      <g>
       <use xlink:href="#m4ab9728622" x="126.792" y="307.584" style="stroke: #000000; stroke-width: 0.8"/>
      </g>
     </g>
     <g id="text_4">
      <!-- 8 -->
      <g transform="translate(129.551375 320.9465) rotate(-90) scale(0.1 -0.1)">
       <defs>
        <path id="DejaVuSans-38" d="M 2034 2216 
Q 1584 2216 1326 1975 
Q 1069 1734 1069 1313 
Q 1069 891 1326 650 
Q 1584 409 2034 409 
Q 2484 409 2743 651 
Q 3003 894 3003 1313 
Q 3003 1734 2745 1975 
Q 2488 2216 2034 2216 
z
M 1403 2484 
Q 997 2584 770 2862 
Q 544 3141 544 3541 
Q 544 4100 942 4425 
Q 1341 4750 2034 4750 
Q 2731 4750 3128 4425 
Q 3525 4100 3525 3541 
Q 3525 3141 3298 2862 
Q 3072 2584 2669 2484 
Q 3125 2378 3379 2068 
Q 3634 1759 3634 1313 
Q 3634 634 3220 271 
Q 2806 -91 2034 -91 
Q 1263 -91 848 271 
Q 434 634 434 1313 
Q 434 1759 690 2068 
Q 947 2378 1403 2484 
z
M 1172 3481 
Q 1172 3119 1398 2916 
Q 1625 2713 2034 2713 
Q 2441 2713 2670 2916 
Q 2900 3119 2900 3481 
Q 2900 3844 2670 4047 
Q 2441 4250 2034 4250 
Q 1625 4250 1398 4047 
Q 1172 3844 1172 3481 
z
" transform="scale(0.015625)"/>
       </defs>
       <use xlink:href="#DejaVuSans-38"/>
      </g>
     </g>
    </g>
    <g id="xtick_5">
     <g id="line2d_5">
      <g>
       <use xlink:href="#m4ab9728622" x="149.112" y="307.584" style="stroke: #000000; stroke-width: 0.8"/>
      </g>
     </g>
     <g id="text_5">
      <!-- 10.5 -->
      <g transform="translate(151.871375 336.849625) rotate(-90) scale(0.1 -0.1)">
       <defs>
        <path id="DejaVuSans-31" d="M 794 531 
L 1825 531 
L 1825 4091 
L 703 3866 
L 703 4441 
L 1819 4666 
L 2450 4666 
L 2450 531 
L 3481 531 
L 3481 0 
L 794 0 
L 794 531 
z
" transform="scale(0.015625)"/>
       </defs>
       <use xlink:href="#DejaVuSans-31"/>
       <use xlink:href="#DejaVuSans-30" transform="translate(63.623047 0)"/>
       <use xlink:href="#DejaVuSans-2e" transform="translate(127.246094 0)"/>
       <use xlink:href="#DejaVuSans-35" transform="translate(159.033203 0)"/>
      </g>
     </g>
    </g>
    <g id="xtick_6">
     <g id="line2d_6">
      <g>
       <use xlink:href="#m4ab9728622" x="171.432" y="307.584" style="stroke: #000000; stroke-width: 0.8"/>
      </g>
     </g>
     <g id="text_6">
      <!-- 13 -->
      <g transform="translate(174.191375 327.309) rotate(-90) scale(0.1 -0.1)">
       <use xlink:href="#DejaVuSans-31"/>
       <use xlink:href="#DejaVuSans-33" transform="translate(63.623047 0)"/>
      </g>
     </g>
    </g>
    <g id="xtick_7">
     <g id="line2d_7">
      <g>
       <use xlink:href="#m4ab9728622" x="193.752" y="307.584" style="stroke: #000000; stroke-width: 0.8"/>
      </g>
     </g>
     <g id="text_7">
      <!-- 15.5 -->
      <g transform="translate(196.511375 336.849625) rotate(-90) scale(0.1 -0.1)">
       <use xlink:href="#DejaVuSans-31"/>
       <use xlink:href="#DejaVuSans-35" transform="translate(63.623047 0)"/>
       <use xlink:href="#DejaVuSans-2e" transform="translate(127.246094 0)"/>
       <use xlink:href="#DejaVuSans-35" transform="translate(159.033203 0)"/>
      </g>
     </g>
    </g>
    <g id="xtick_8">
     <g id="line2d_8">
      <g>
       <use xlink:href="#m4ab9728622" x="216.072" y="307.584" style="stroke: #000000; stroke-width: 0.8"/>
      </g>
     </g>
     <g id="text_8">
      <!-- 18 -->
      <g transform="translate(218.831375 327.309) rotate(-90) scale(0.1 -0.1)">
       <use xlink:href="#DejaVuSans-31"/>
       <use xlink:href="#DejaVuSans-38" transform="translate(63.623047 0)"/>
      </g>
     </g>
    </g>
    <g id="xtick_9">
     <g id="line2d_9">
      <g>
       <use xlink:href="#m4ab9728622" x="238.392" y="307.584" style="stroke: #000000; stroke-width: 0.8"/>
      </g>
     </g>
     <g id="text_9">
      <!-- 20.5 -->
      <g transform="translate(241.151375 336.849625) rotate(-90) scale(0.1 -0.1)">
       <defs>
        <path id="DejaVuSans-32" d="M 1228 531 
L 3431 531 
L 3431 0 
L 469 0 
L 469 531 
Q 828 903 1448 1529 
Q 2069 2156 2228 2338 
Q 2531 2678 2651 2914 
Q 2772 3150 2772 3378 
Q 2772 3750 2511 3984 
Q 2250 4219 1831 4219 
Q 1534 4219 1204 4116 
Q 875 4013 500 3803 
L 500 4441 
Q 881 4594 1212 4672 
Q 1544 4750 1819 4750 
Q 2544 4750 2975 4387 
Q 3406 4025 3406 3419 
Q 3406 3131 3298 2873 
Q 3191 2616 2906 2266 
Q 2828 2175 2409 1742 
Q 1991 1309 1228 531 
z
" transform="scale(0.015625)"/>
       </defs>
       <use xlink:href="#DejaVuSans-32"/>
       <use xlink:href="#DejaVuSans-30" transform="translate(63.623047 0)"/>
       <use xlink:href="#DejaVuSans-2e" transform="translate(127.246094 0)"/>
       <use xlink:href="#DejaVuSans-35" transform="translate(159.033203 0)"/>
      </g>
     </g>
    </g>
    <g id="xtick_10">
     <g id="line2d_10">
      <g>
       <use xlink:href="#m4ab9728622" x="260.712" y="307.584" style="stroke: #000000; stroke-width: 0.8"/>
      </g>
     </g>
     <g id="text_10">
      <!-- 23 -->
      <g transform="translate(263.471375 327.309) rotate(-90) scale(0.1 -0.1)">
       <use xlink:href="#DejaVuSans-32"/>
       <use xlink:href="#DejaVuSans-33" transform="translate(63.623047 0)"/>
      </g>
     </g>
    </g>
    <g id="xtick_11">
     <g id="line2d_11">
      <g>
       <use xlink:href="#m4ab9728622" x="283.032" y="307.584" style="stroke: #000000; stroke-width: 0.8"/>
      </g>
     </g>
     <g id="text_11">
      <!-- 25.5 -->
      <g transform="translate(285.791375 336.849625) rotate(-90) scale(0.1 -0.1)">
       <use xlink:href="#DejaVuSans-32"/>
       <use xlink:href="#DejaVuSans-35" transform="translate(63.623047 0)"/>
       <use xlink:href="#DejaVuSans-2e" transform="translate(127.246094 0)"/>
       <use xlink:href="#DejaVuSans-35" transform="translate(159.033203 0)"/>
      </g>
     </g>
    </g>
    <g id="xtick_12">
     <g id="line2d_12">
      <g>
       <use xlink:href="#m4ab9728622" x="305.352" y="307.584" style="stroke: #000000; stroke-width: 0.8"/>
      </g>
     </g>
     <g id="text_12">
      <!-- 28 -->
      <g transform="translate(308.111375 327.309) rotate(-90) scale(0.1 -0.1)">
       <use xlink:href="#DejaVuSans-32"/>
       <use xlink:href="#DejaVuSans-38" transform="translate(63.623047 0)"/>
      </g>
     </g>
    </g>
    <g id="xtick_13">
     <g id="line2d_13">
      <g>
       <use xlink:href="#m4ab9728622" x="327.672" y="307.584" style="stroke: #000000; stroke-width: 0.8"/>
      </g>
     </g>
     <g id="text_13">
      <!-- 30.5 -->
      <g transform="translate(330.431375 336.849625) rotate(-90) scale(0.1 -0.1)">
       <use xlink:href="#DejaVuSans-33"/>
       <use xlink:href="#DejaVuSans-30" transform="translate(63.623047 0)"/>
       <use xlink:href="#DejaVuSans-2e" transform="translate(127.246094 0)"/>
       <use xlink:href="#DejaVuSans-35" transform="translate(159.033203 0)"/>
      </g>
     </g>
    </g>
    <g id="xtick_14">
     <g id="line2d_14">
      <g>
       <use xlink:href="#m4ab9728622" x="349.992" y="307.584" style="stroke: #000000; stroke-width: 0.8"/>
      </g>
     </g>
     <g id="text_14">
      <!-- 33 -->
      <g transform="translate(352.751375 327.309) rotate(-90) scale(0.1 -0.1)">
       <use xlink:href="#DejaVuSans-33"/>
       <use xlink:href="#DejaVuSans-33" transform="translate(63.623047 0)"/>
      </g>
     </g>
    </g>
    <g id="xtick_15">
     <g id="line2d_15">
      <g>
       <use xlink:href="#m4ab9728622" x="372.312" y="307.584" style="stroke: #000000; stroke-width: 0.8"/>
      </g>
     </g>
     <g id="text_15">
      <!-- 35.5 -->
      <g transform="translate(375.071375 336.849625) rotate(-90) scale(0.1 -0.1)">
       <use xlink:href="#DejaVuSans-33"/>
       <use xlink:href="#DejaVuSans-35" transform="translate(63.623047 0)"/>
       <use xlink:href="#DejaVuSans-2e" transform="translate(127.246094 0)"/>
       <use xlink:href="#DejaVuSans-35" transform="translate(159.033203 0)"/>
      </g>
     </g>
    </g>
    <g id="xtick_16">
     <g id="line2d_16">
      <g>
       <use xlink:href="#m4ab9728622" x="394.632" y="307.584" style="stroke: #000000; stroke-width: 0.8"/>
      </g>
     </g>
     <g id="text_16">
      <!-- 38 -->
      <g transform="translate(397.391375 327.309) rotate(-90) scale(0.1 -0.1)">
       <use xlink:href="#DejaVuSans-33"/>
       <use xlink:href="#DejaVuSans-38" transform="translate(63.623047 0)"/>
      </g>
     </g>
    </g>
    <g id="text_17">
     <!-- 0 -->
     <g transform="translate(232.97875 348.448062) scale(0.1 -0.1)">
      <use xlink:href="#DejaVuSans-30"/>
     </g>
    </g>
   </g>
   <g id="matplotlib.axis_2">
    <g id="ytick_1">
     <g id="line2d_17">
      <defs>
       <path id="maf05306015" d="M 0 0 
L -3.5 0 
" style="stroke: #000000; stroke-width: 0.8"/>
      </defs>
      <g>
       <use xlink:href="#maf05306015" x="57.6" y="307.584" style="stroke: #000000; stroke-width: 0.8"/>
      </g>
     </g>
     <g id="text_18">
      <!-- 0 -->
      <g transform="translate(44.2375 311.383219) scale(0.1 -0.1)">
       <use xlink:href="#DejaVuSans-30"/>
      </g>
     </g>
    </g>
    <g id="ytick_2">
     <g id="line2d_18">
      <g>
       <use xlink:href="#maf05306015" x="57.6" y="261.670957" style="stroke: #000000; stroke-width: 0.8"/>
      </g>
     </g>
     <g id="text_19">
      <!-- 100 -->
      <g transform="translate(31.5125 265.470175) scale(0.1 -0.1)">
       <use xlink:href="#DejaVuSans-31"/>
       <use xlink:href="#DejaVuSans-30" transform="translate(63.623047 0)"/>
       <use xlink:href="#DejaVuSans-30" transform="translate(127.246094 0)"/>
      </g>
     </g>
    </g>
    <g id="ytick_3">
     <g id="line2d_19">
      <g>
       <use xlink:href="#maf05306015" x="57.6" y="215.757913" style="stroke: #000000; stroke-width: 0.8"/>
      </g>
     </g>
     <g id="text_20">
      <!-- 200 -->
      <g transform="translate(31.5125 219.557132) scale(0.1 -0.1)">
       <use xlink:href="#DejaVuSans-32"/>
       <use xlink:href="#DejaVuSans-30" transform="translate(63.623047 0)"/>
       <use xlink:href="#DejaVuSans-30" transform="translate(127.246094 0)"/>
      </g>
     </g>
    </g>
    <g id="ytick_4">
     <g id="line2d_20">
      <g>
       <use xlink:href="#maf05306015" x="57.6" y="169.84487" style="stroke: #000000; stroke-width: 0.8"/>
      </g>
     </g>
     <g id="text_21">
      <!-- 300 -->
      <g transform="translate(31.5125 173.644088) scale(0.1 -0.1)">
       <use xlink:href="#DejaVuSans-33"/>
       <use xlink:href="#DejaVuSans-30" transform="translate(63.623047 0)"/>
       <use xlink:href="#DejaVuSans-30" transform="translate(127.246094 0)"/>
      </g>
     </g>
    </g>
    <g id="ytick_5">
     <g id="line2d_21">
      <g>
       <use xlink:href="#maf05306015" x="57.6" y="123.931826" style="stroke: #000000; stroke-width: 0.8"/>
      </g>
     </g>
     <g id="text_22">
      <!-- 400 -->
      <g transform="translate(31.5125 127.731045) scale(0.1 -0.1)">
       <defs>
        <path id="DejaVuSans-34" d="M 2419 4116 
L 825 1625 
L 2419 1625 
L 2419 4116 
z
M 2253 4666 
L 3047 4666 
L 3047 1625 
L 3713 1625 
L 3713 1100 
L 3047 1100 
L 3047 0 
L 2419 0 
L 2419 1100 
L 313 1100 
L 313 1709 
L 2253 4666 
z
" transform="scale(0.015625)"/>
       </defs>
       <use xlink:href="#DejaVuSans-34"/>
       <use xlink:href="#DejaVuSans-30" transform="translate(63.623047 0)"/>
       <use xlink:href="#DejaVuSans-30" transform="translate(127.246094 0)"/>
      </g>
     </g>
    </g>
    <g id="ytick_6">
     <g id="line2d_22">
      <g>
       <use xlink:href="#maf05306015" x="57.6" y="78.018783" style="stroke: #000000; stroke-width: 0.8"/>
      </g>
     </g>
     <g id="text_23">
      <!-- 500 -->
      <g transform="translate(31.5125 81.818001) scale(0.1 -0.1)">
       <use xlink:href="#DejaVuSans-35"/>
       <use xlink:href="#DejaVuSans-30" transform="translate(63.623047 0)"/>
       <use xlink:href="#DejaVuSans-30" transform="translate(127.246094 0)"/>
      </g>
     </g>
    </g>
    <g id="text_24">
     <!-- No of Nulls -->
     <g transform="translate(25.432812 201.617844) rotate(-90) scale(0.1 -0.1)">
      <defs>
       <path id="DejaVuSans-4e" d="M 628 4666 
L 1478 4666 
L 3547 763 
L 3547 4666 
L 4159 4666 
L 4159 0 
L 3309 0 
L 1241 3903 
L 1241 0 
L 628 0 
L 628 4666 
z
" transform="scale(0.015625)"/>
       <path id="DejaVuSans-6f" d="M 1959 3097 
Q 1497 3097 1228 2736 
Q 959 2375 959 1747 
Q 959 1119 1226 758 
Q 1494 397 1959 397 
Q 2419 397 2687 759 
Q 2956 1122 2956 1747 
Q 2956 2369 2687 2733 
Q 2419 3097 1959 3097 
z
M 1959 3584 
Q 2709 3584 3137 3096 
Q 3566 2609 3566 1747 
Q 3566 888 3137 398 
Q 2709 -91 1959 -91 
Q 1206 -91 779 398 
Q 353 888 353 1747 
Q 353 2609 779 3096 
Q 1206 3584 1959 3584 
z
" transform="scale(0.015625)"/>
       <path id="DejaVuSans-20" transform="scale(0.015625)"/>
       <path id="DejaVuSans-66" d="M 2375 4863 
L 2375 4384 
L 1825 4384 
Q 1516 4384 1395 4259 
Q 1275 4134 1275 3809 
L 1275 3500 
L 2222 3500 
L 2222 3053 
L 1275 3053 
L 1275 0 
L 697 0 
L 697 3053 
L 147 3053 
L 147 3500 
L 697 3500 
L 697 3744 
Q 697 4328 969 4595 
Q 1241 4863 1831 4863 
L 2375 4863 
z
" transform="scale(0.015625)"/>
       <path id="DejaVuSans-75" d="M 544 1381 
L 544 3500 
L 1119 3500 
L 1119 1403 
Q 1119 906 1312 657 
Q 1506 409 1894 409 
Q 2359 409 2629 706 
Q 2900 1003 2900 1516 
L 2900 3500 
L 3475 3500 
L 3475 0 
L 2900 0 
L 2900 538 
Q 2691 219 2414 64 
Q 2138 -91 1772 -91 
Q 1169 -91 856 284 
Q 544 659 544 1381 
z
M 1991 3584 
L 1991 3584 
z
" transform="scale(0.015625)"/>
       <path id="DejaVuSans-6c" d="M 603 4863 
L 1178 4863 
L 1178 0 
L 603 0 
L 603 4863 
z
" transform="scale(0.015625)"/>
       <path id="DejaVuSans-73" d="M 2834 3397 
L 2834 2853 
Q 2591 2978 2328 3040 
Q 2066 3103 1784 3103 
Q 1356 3103 1142 2972 
Q 928 2841 928 2578 
Q 928 2378 1081 2264 
Q 1234 2150 1697 2047 
L 1894 2003 
Q 2506 1872 2764 1633 
Q 3022 1394 3022 966 
Q 3022 478 2636 193 
Q 2250 -91 1575 -91 
Q 1294 -91 989 -36 
Q 684 19 347 128 
L 347 722 
Q 666 556 975 473 
Q 1284 391 1588 391 
Q 1994 391 2212 530 
Q 2431 669 2431 922 
Q 2431 1156 2273 1281 
Q 2116 1406 1581 1522 
L 1381 1569 
Q 847 1681 609 1914 
Q 372 2147 372 2553 
Q 372 3047 722 3315 
Q 1072 3584 1716 3584 
Q 2034 3584 2315 3537 
Q 2597 3491 2834 3397 
z
" transform="scale(0.015625)"/>
      </defs>
      <use xlink:href="#DejaVuSans-4e"/>
      <use xlink:href="#DejaVuSans-6f" transform="translate(74.804688 0)"/>
      <use xlink:href="#DejaVuSans-20" transform="translate(135.986328 0)"/>
      <use xlink:href="#DejaVuSans-6f" transform="translate(167.773438 0)"/>
      <use xlink:href="#DejaVuSans-66" transform="translate(228.955078 0)"/>
      <use xlink:href="#DejaVuSans-20" transform="translate(264.160156 0)"/>
      <use xlink:href="#DejaVuSans-4e" transform="translate(295.947266 0)"/>
      <use xlink:href="#DejaVuSans-75" transform="translate(370.751953 0)"/>
      <use xlink:href="#DejaVuSans-6c" transform="translate(434.130859 0)"/>
      <use xlink:href="#DejaVuSans-6c" transform="translate(461.914062 0)"/>
      <use xlink:href="#DejaVuSans-73" transform="translate(489.697266 0)"/>
     </g>
    </g>
   </g>
   <g id="patch_83">
    <path d="M 57.6 307.584 
L 57.6 41.472 
" style="fill: none; stroke: #000000; stroke-width: 0.8; stroke-linejoin: miter; stroke-linecap: square"/>
   </g>
   <g id="patch_84">
    <path d="M 414.72 307.584 
L 414.72 41.472 
" style="fill: none; stroke: #000000; stroke-width: 0.8; stroke-linejoin: miter; stroke-linecap: square"/>
   </g>
   <g id="patch_85">
    <path d="M 57.6 307.584 
L 414.72 307.584 
" style="fill: none; stroke: #000000; stroke-width: 0.8; stroke-linejoin: miter; stroke-linecap: square"/>
   </g>
   <g id="patch_86">
    <path d="M 57.6 41.472 
L 414.72 41.472 
" style="fill: none; stroke: #000000; stroke-width: 0.8; stroke-linejoin: miter; stroke-linecap: square"/>
   </g>
   <g id="text_25">
    <!-- Null Counts by Term -->
    <g transform="translate(175.967813 35.472) scale(0.12 -0.12)">
     <defs>
      <path id="DejaVuSans-43" d="M 4122 4306 
L 4122 3641 
Q 3803 3938 3442 4084 
Q 3081 4231 2675 4231 
Q 1875 4231 1450 3742 
Q 1025 3253 1025 2328 
Q 1025 1406 1450 917 
Q 1875 428 2675 428 
Q 3081 428 3442 575 
Q 3803 722 4122 1019 
L 4122 359 
Q 3791 134 3420 21 
Q 3050 -91 2638 -91 
Q 1578 -91 968 557 
Q 359 1206 359 2328 
Q 359 3453 968 4101 
Q 1578 4750 2638 4750 
Q 3056 4750 3426 4639 
Q 3797 4528 4122 4306 
z
" transform="scale(0.015625)"/>
      <path id="DejaVuSans-6e" d="M 3513 2113 
L 3513 0 
L 2938 0 
L 2938 2094 
Q 2938 2591 2744 2837 
Q 2550 3084 2163 3084 
Q 1697 3084 1428 2787 
Q 1159 2491 1159 1978 
L 1159 0 
L 581 0 
L 581 3500 
L 1159 3500 
L 1159 2956 
Q 1366 3272 1645 3428 
Q 1925 3584 2291 3584 
Q 2894 3584 3203 3211 
Q 3513 2838 3513 2113 
z
" transform="scale(0.015625)"/>
      <path id="DejaVuSans-74" d="M 1172 4494 
L 1172 3500 
L 2356 3500 
L 2356 3053 
L 1172 3053 
L 1172 1153 
Q 1172 725 1289 603 
Q 1406 481 1766 481 
L 2356 481 
L 2356 0 
L 1766 0 
Q 1100 0 847 248 
Q 594 497 594 1153 
L 594 3053 
L 172 3053 
L 172 3500 
L 594 3500 
L 594 4494 
L 1172 4494 
z
" transform="scale(0.015625)"/>
      <path id="DejaVuSans-62" d="M 3116 1747 
Q 3116 2381 2855 2742 
Q 2594 3103 2138 3103 
Q 1681 3103 1420 2742 
Q 1159 2381 1159 1747 
Q 1159 1113 1420 752 
Q 1681 391 2138 391 
Q 2594 391 2855 752 
Q 3116 1113 3116 1747 
z
M 1159 2969 
Q 1341 3281 1617 3432 
Q 1894 3584 2278 3584 
Q 2916 3584 3314 3078 
Q 3713 2572 3713 1747 
Q 3713 922 3314 415 
Q 2916 -91 2278 -91 
Q 1894 -91 1617 61 
Q 1341 213 1159 525 
L 1159 0 
L 581 0 
L 581 4863 
L 1159 4863 
L 1159 2969 
z
" transform="scale(0.015625)"/>
      <path id="DejaVuSans-79" d="M 2059 -325 
Q 1816 -950 1584 -1140 
Q 1353 -1331 966 -1331 
L 506 -1331 
L 506 -850 
L 844 -850 
Q 1081 -850 1212 -737 
Q 1344 -625 1503 -206 
L 1606 56 
L 191 3500 
L 800 3500 
L 1894 763 
L 2988 3500 
L 3597 3500 
L 2059 -325 
z
" transform="scale(0.015625)"/>
      <path id="DejaVuSans-54" d="M -19 4666 
L 3928 4666 
L 3928 4134 
L 2272 4134 
L 2272 0 
L 1638 0 
L 1638 4134 
L -19 4134 
L -19 4666 
z
" transform="scale(0.015625)"/>
      <path id="DejaVuSans-65" d="M 3597 1894 
L 3597 1613 
L 953 1613 
Q 991 1019 1311 708 
Q 1631 397 2203 397 
Q 2534 397 2845 478 
Q 3156 559 3463 722 
L 3463 178 
Q 3153 47 2828 -22 
Q 2503 -91 2169 -91 
Q 1331 -91 842 396 
Q 353 884 353 1716 
Q 353 2575 817 3079 
Q 1281 3584 2069 3584 
Q 2775 3584 3186 3129 
Q 3597 2675 3597 1894 
z
M 3022 2063 
Q 3016 2534 2758 2815 
Q 2500 3097 2075 3097 
Q 1594 3097 1305 2825 
Q 1016 2553 972 2059 
L 3022 2063 
z
" transform="scale(0.015625)"/>
      <path id="DejaVuSans-72" d="M 2631 2963 
Q 2534 3019 2420 3045 
Q 2306 3072 2169 3072 
Q 1681 3072 1420 2755 
Q 1159 2438 1159 1844 
L 1159 0 
L 581 0 
L 581 3500 
L 1159 3500 
L 1159 2956 
Q 1341 3275 1631 3429 
Q 1922 3584 2338 3584 
Q 2397 3584 2469 3576 
Q 2541 3569 2628 3553 
L 2631 2963 
z
" transform="scale(0.015625)"/>
      <path id="DejaVuSans-6d" d="M 3328 2828 
Q 3544 3216 3844 3400 
Q 4144 3584 4550 3584 
Q 5097 3584 5394 3201 
Q 5691 2819 5691 2113 
L 5691 0 
L 5113 0 
L 5113 2094 
Q 5113 2597 4934 2840 
Q 4756 3084 4391 3084 
Q 3944 3084 3684 2787 
Q 3425 2491 3425 1978 
L 3425 0 
L 2847 0 
L 2847 2094 
Q 2847 2600 2669 2842 
Q 2491 3084 2119 3084 
Q 1678 3084 1418 2786 
Q 1159 2488 1159 1978 
L 1159 0 
L 581 0 
L 581 3500 
L 1159 3500 
L 1159 2956 
Q 1356 3278 1631 3431 
Q 1906 3584 2284 3584 
Q 2666 3584 2933 3390 
Q 3200 3197 3328 2828 
z
" transform="scale(0.015625)"/>
     </defs>
     <use xlink:href="#DejaVuSans-4e"/>
     <use xlink:href="#DejaVuSans-75" transform="translate(74.804688 0)"/>
     <use xlink:href="#DejaVuSans-6c" transform="translate(138.183594 0)"/>
     <use xlink:href="#DejaVuSans-6c" transform="translate(165.966797 0)"/>
     <use xlink:href="#DejaVuSans-20" transform="translate(193.75 0)"/>
     <use xlink:href="#DejaVuSans-43" transform="translate(225.537109 0)"/>
     <use xlink:href="#DejaVuSans-6f" transform="translate(295.361328 0)"/>
     <use xlink:href="#DejaVuSans-75" transform="translate(356.542969 0)"/>
     <use xlink:href="#DejaVuSans-6e" transform="translate(419.921875 0)"/>
     <use xlink:href="#DejaVuSans-74" transform="translate(483.300781 0)"/>
     <use xlink:href="#DejaVuSans-73" transform="translate(522.509766 0)"/>
     <use xlink:href="#DejaVuSans-20" transform="translate(574.609375 0)"/>
     <use xlink:href="#DejaVuSans-62" transform="translate(606.396484 0)"/>
     <use xlink:href="#DejaVuSans-79" transform="translate(669.873047 0)"/>
     <use xlink:href="#DejaVuSans-20" transform="translate(729.052734 0)"/>
     <use xlink:href="#DejaVuSans-54" transform="translate(760.839844 0)"/>
     <use xlink:href="#DejaVuSans-65" transform="translate(804.923828 0)"/>
     <use xlink:href="#DejaVuSans-72" transform="translate(866.447266 0)"/>
     <use xlink:href="#DejaVuSans-6d" transform="translate(905.810547 0)"/>
    </g>
   </g>
  </g>
 </g>
 <defs>
  <clipPath id="pe4af7b34d5">
   <rect x="57.6" y="41.472" width="357.12" height="266.112"/>
  </clipPath>
 </defs>
</svg>
